<?xml version="1.0" encoding="utf-8"?>
<!-- Generator: Adobe Illustrator 26.1.0, SVG Export Plug-In . SVG Version: 6.00 Build 0)  -->
<svg version="1.1" id="Layer_1" xmlns="http://www.w3.org/2000/svg" xmlns:xlink="http://www.w3.org/1999/xlink" x="0px" y="0px"
	 viewBox="0 0 48.64 47.04" style="enable-background:new 0 0 48.64 47.04;" xml:space="preserve">
<style type="text/css">
	.st0{fill:none;stroke:#232221;stroke-width:1.5;stroke-miterlimit:10;}
	.st1{fill:#232221;}
</style>
<g id="XMLID_2023_">
	<path id="XMLID_2079_" class="st0" d="M24.32,42.55L24.32,42.55c-10.51,0-19.03-8.52-19.03-19.03v0c0-10.51,8.52-19.03,19.03-19.03
		l0,0c10.51,0,19.03,8.52,19.03,19.03v0C43.35,34.03,34.83,42.55,24.32,42.55z"/>
	<g id="XMLID_2024_">
		<path id="XMLID_2076_" class="st1" d="M24.32,14.96c2.79,0,3.12,0.01,4.22,0.06c1.02,0.05,1.57,0.22,1.94,0.36
			c0.49,0.19,0.83,0.42,1.2,0.78c0.37,0.37,0.59,0.71,0.78,1.2c0.14,0.37,0.31,0.92,0.36,1.94c0.05,1.1,0.06,1.43,0.06,4.22
			s-0.01,3.12-0.06,4.22c-0.05,1.02-0.22,1.57-0.36,1.94c-0.19,0.49-0.42,0.83-0.78,1.2c-0.36,0.36-0.71,0.59-1.2,0.78
			c-0.37,0.14-0.92,0.31-1.94,0.36c-1.1,0.05-1.43,0.06-4.22,0.06s-3.12-0.01-4.22-0.06c-1.02-0.05-1.57-0.22-1.94-0.36
			c-0.49-0.19-0.83-0.42-1.2-0.78c-0.37-0.37-0.59-0.71-0.78-1.2c-0.14-0.37-0.31-0.92-0.36-1.94c-0.05-1.1-0.06-1.43-0.06-4.22
			s0.01-3.12,0.06-4.22c0.05-1.02,0.22-1.57,0.36-1.94c0.19-0.49,0.42-0.83,0.78-1.2c0.37-0.37,0.71-0.59,1.2-0.78
			c0.37-0.14,0.92-0.31,1.94-0.36C21.21,14.98,21.54,14.96,24.32,14.96 M24.32,13.08c-2.83,0-3.19,0.01-4.3,0.06
			c-1.11,0.05-1.87,0.23-2.53,0.49c-0.69,0.27-1.27,0.62-1.85,1.2c-0.58,0.58-0.94,1.16-1.2,1.85c-0.26,0.66-0.43,1.42-0.48,2.53
			c-0.05,1.11-0.06,1.47-0.06,4.3c0,2.83,0.01,3.19,0.06,4.3c0.05,1.11,0.23,1.87,0.48,2.53c0.27,0.69,0.62,1.27,1.2,1.85
			c0.58,0.58,1.16,0.94,1.85,1.2c0.66,0.26,1.42,0.43,2.53,0.49c1.11,0.05,1.47,0.06,4.3,0.06c2.83,0,3.19-0.01,4.3-0.06
			c1.11-0.05,1.87-0.23,2.53-0.49c0.69-0.27,1.27-0.62,1.85-1.2c0.58-0.58,0.94-1.16,1.2-1.85c0.26-0.66,0.43-1.42,0.49-2.53
			c0.05-1.11,0.06-1.47,0.06-4.3c0-2.83-0.01-3.19-0.06-4.3c-0.05-1.11-0.23-1.87-0.49-2.53c-0.27-0.69-0.62-1.27-1.2-1.85
			s-1.16-0.94-1.85-1.2c-0.66-0.26-1.42-0.43-2.53-0.49C27.51,13.1,27.16,13.08,24.32,13.08"/>
		<path id="XMLID_2073_" class="st1" d="M24.32,18.16c-2.96,0-5.36,2.4-5.36,5.36c0,2.96,2.4,5.36,5.36,5.36
			c2.96,0,5.36-2.4,5.36-5.36C29.68,20.56,27.28,18.16,24.32,18.16 M24.32,27c-1.92,0-3.48-1.56-3.48-3.48
			c0-1.92,1.56-3.48,3.48-3.48s3.48,1.56,3.48,3.48C27.8,25.44,26.24,27,24.32,27"/>
		<path id="XMLID_2025_" class="st1" d="M31.14,17.95c0,0.69-0.56,1.25-1.25,1.25c-0.69,0-1.25-0.56-1.25-1.25
			c0-0.69,0.56-1.25,1.25-1.25C30.58,16.7,31.14,17.26,31.14,17.95"/>
	</g>
</g>
</svg>
