<?xml version="1.0" encoding="UTF-8"?><svg xmlns="http://www.w3.org/2000/svg" xmlns:xlink="http://www.w3.org/1999/xlink" viewBox="0 0 1000 1000"><defs><style>.f,.g{fill:none;}.h{fill:#000;}.i{fill:#5c1e52;}.g{stroke:#000;stroke-dasharray:0 21.07;stroke-miterlimit:10;stroke-width:5.27px;}.j{clip-path:url(#e);}</style><clipPath id="e"><rect class="f" x="-1018.99" y="1.91" width="1001" height="1004"/></clipPath></defs><g id="a"/><g id="b"/><g id="c"/><g id="d"><g class="j"><path class="i" d="M-.51,445.61l-.13,.76c-.07-.07-.07-.18-.07-.2-.06,.13-.2,.42-.01,.73l.67,.18s.07-.03,.14-.05c.15-.04,.38-.1,.61-.3,.06-.06,.13-.13,.19-.21l-.04-.63-.3-.32-.64-.07c-.09,0-.25,0-.42,.1Z"/><path class="g" d="M-375.1-38.48c-19.8,43,44.54,118.89,72.96,143.57,31.27,27.15,73.22,20.51,108.2,45.3,41.63,29.49,42.22,60.29,55.97,105.93,28.09,93.2,163.45,136.86,205.35,27.65"/><path class="g" d="M-200.93,1060.67c-10.56-136.62,164.02-268.46,291.85-225.95"/></g><path class="h" d="M815.14,533.96H185.55c-23.43,0-42.49-19.06-42.49-42.49s19.06-42.49,42.49-42.49h195.61c1.57-64.38,54.43-116.27,119.19-116.27s117.61,51.88,119.19,116.27h195.61c23.43,0,42.49,19.06,42.49,42.49s-19.06,42.49-42.49,42.49ZM185.55,456.79c-19.12,0-34.67,15.56-34.67,34.67s15.56,34.67,34.67,34.67H815.14c19.12,0,34.67-15.55,34.67-34.67s-15.56-34.67-34.67-34.67h-203.54l.15-4.86c0-61.43-49.98-111.4-111.4-111.4s-111.4,49.98-111.4,111.4l.11,4.86H185.55Z"/><path class="h" d="M399.5,543.92c-.2,55.41,44.36,100.66,99.85,101.22,55.49,.55,100.94-43.8,101.85-99.2l-201.7-2.02Zm100.67,19.35c4.72,.05,8.5,3.91,8.46,8.63-.05,4.72-3.91,8.5-8.63,8.46-4.72-.05-8.5-3.91-8.46-8.63,.05-4.72,3.91-8.5,8.63-8.46Zm-.59,58.53c-17.29-.17-31.17-14.27-31.11-31.53l62.84,.63c-.28,17.26-14.44,31.08-31.73,30.9Z"/></g></svg>