<?xml version="1.0" encoding="utf-8"?>
<!-- Generator: Adobe Illustrator 26.1.0, SVG Export Plug-In . SVG Version: 6.00 Build 0)  -->
<svg version="1.1" id="Layer_1" xmlns="http://www.w3.org/2000/svg" xmlns:xlink="http://www.w3.org/1999/xlink" x="0px" y="0px"
	 viewBox="0 0 48.64 47.04" style="enable-background:new 0 0 48.64 47.04;" xml:space="preserve">
<style type="text/css">
	.st0{fill:none;stroke:#232221;stroke-width:1.5;stroke-miterlimit:10;}
	.st1{fill-rule:evenodd;clip-rule:evenodd;fill:#232221;}
</style>
<g id="XMLID_2124_">
	<path id="XMLID_2130_" class="st0" d="M23.81,43.13L23.81,43.13c-10.51,0-19.03-8.52-19.03-19.03v0c0-10.51,8.52-19.03,19.03-19.03
		l0,0c10.51,0,19.03,8.52,19.03,19.03v0C42.84,34.61,34.32,43.13,23.81,43.13z"/>
	<g id="XMLID_2125_">
		<path id="XMLID_2127_" class="st1" d="M34.24,23.57c-0.14-5.5-4.67-9.91-10.24-9.91c-5.51,0-10,4.31-10.24,9.73
			c0,0.15-0.01,0.3-0.01,0.45c0,1.92,0.54,3.72,1.47,5.25l-1.85,5.46l5.68-1.8C20.52,33.54,22.2,34,24,34
			c5.66,0,10.25-4.55,10.25-10.17C34.25,23.74,34.25,23.66,34.24,23.57z M24,32.38c-1.75,0-3.38-0.52-4.74-1.42l-3.31,1.06
			l1.07-3.18c-1.03-1.41-1.64-3.14-1.64-5.01c0-0.28,0.01-0.56,0.04-0.83c0.42-4.33,4.11-7.72,8.57-7.72c4.52,0,8.24,3.48,8.59,7.88
			c0.02,0.22,0.03,0.44,0.03,0.67C32.62,28.55,28.75,32.38,24,32.38z"/>
		<path id="XMLID_2126_" class="st1" d="M28.7,25.88c-0.25-0.12-1.49-0.73-1.72-0.81c-0.23-0.09-0.4-0.12-0.57,0.12
			c-0.17,0.25-0.65,0.81-0.8,0.97c-0.15,0.17-0.29,0.19-0.55,0.06c-0.25-0.12-1.06-0.38-2.02-1.24c-0.74-0.66-1.25-1.47-1.4-1.72
			c-0.14-0.25-0.01-0.38,0.11-0.51c0.11-0.11,0.25-0.29,0.38-0.44c0.03-0.04,0.06-0.08,0.09-0.12c0.06-0.09,0.1-0.18,0.16-0.3
			c0.09-0.17,0.04-0.31-0.02-0.44c-0.06-0.12-0.57-1.35-0.78-1.85c-0.21-0.5-0.42-0.41-0.57-0.41c-0.14,0-0.31-0.02-0.48-0.02
			c-0.17,0-0.44,0.06-0.67,0.31C19.65,19.75,19,20.35,19,21.58c0,0.29,0.05,0.58,0.13,0.85c0.25,0.88,0.8,1.6,0.9,1.73
			c0.12,0.16,1.74,2.76,4.29,3.77c2.56,0.99,2.56,0.66,3.02,0.62c0.46-0.04,1.49-0.6,1.69-1.19c0.21-0.58,0.21-1.08,0.15-1.19
			C29.11,26.07,28.95,26.01,28.7,25.88z"/>
	</g>
</g>
</svg>
